<?xml version="1.0"?>
<svg xmlns="http://www.w3.org/2000/svg" xmlns:xlink="http://www.w3.org/1999/xlink" xmlns:svgjs="http://svgjs.com/svgjs" version="1.1" width="512" height="512" x="0" y="0" viewBox="0 0 512.001 512.001" style="enable-background:new 0 0 512 512" xml:space="preserve"><g><g xmlns="http://www.w3.org/2000/svg"><g><g><g><g><path d="m395.151 511.999c-35.823.152-64.667-30.646-62.071-66.399 4.425-64.652 5.537-122.485 4.998-171.265-.1-9.019-10.461-14.119-17.617-8.629-46.159 35.405-83.361 35.377-129.484 0-7.157-5.49-17.519-.391-17.618 8.629-.538 48.78.573 106.613 4.998 171.266 4.258 81.353-116.944 90.129-124.016 8.485-7.331-274.286-18.222-447.721 66.047-453.748 27.908-2.656 47.619 10.288 64.037 39.898 9.683 17.463 25.57 50.391 41.023 77.199 13.364 23.184 46.449 24.164 61.061 1.746 2.607-4 5.255-8.249 7.936-12.755 42.213-67.018 26.819-102.889 96.608-106.132 27.897 2.659 50.55 23.694 55.336 51.304 1.12 6.46 27.235 160.991 10.708 402.49-2.245 32.801-29.553 57.911-61.946 57.911z" fill="#7cbaf7" data-original="#7cbaf7" style=""/></g></g><g><g fill="#229bff"><path d="m457.1 454.09c-2.25 32.8-29.56 57.91-61.95 57.91-35.82.15-64.67-30.65-62.07-66.4 3.93-57.41 5.25-109.43 5.12-154.52 45.8-57.46 73.16-130.25 73.16-209.44 0-27.32-3.26-53.88-9.41-79.31 22.75 6.38 40.29 25.36 44.44 49.27 1.12 6.46 27.23 160.99 10.71 402.49z" fill="#229bff" data-original="#229bff" style=""/><path d="m54.34 454.09c-.33-12.48-.67-24.76-1.01-36.82 7.18.46 14.42.69 21.71.69 35.11 0 68.97-5.38 100.79-15.37.69 13.96 1.52 28.31 2.53 43.01 4.25 81.35-116.95 90.13-124.02 8.49z" fill="#229bff" data-original="#229bff" style=""/></g></g><path d="m457.1 454.09c-2.25 32.8-29.56 57.91-61.95 57.91-33.92.14-61.59-27.47-62.22-60.75 67.25-42.86 115.49-112.9 129.26-194.64 1.05 56.28.02 122.71-5.09 197.48z" fill="#037cff" data-original="#037cff" style=""/></g><path d="m79.936 156.273h-.005c-16.259 0-29.586 12.95-29.989 29.203-1.256 50.659.032 110.644 1.893 178.635.444 16.241 13.741 29.181 29.988 29.181 16.891 0 30.449-13.94 29.988-30.825-1.823-66.683-3.103-126.165-1.887-175.481.416-16.845-13.137-30.713-29.988-30.713z" fill="#a9cffc" data-original="#a9cffc" style=""/><path d="m256.57 195.42c32.47 0 62.46-16.25 80.21-43.48 2.96-4.54 5.93-9.31 8.84-14.19 8.984-14.329 15.777-27.483 21.182-39.023 5.802-12.387 2.31-27.121-8.351-35.691-.162-.13-.323-.26-.485-.39-14.957-12.041-37.297-6.89-45.43 10.503-4.709 10.069-10.456 21.166-18.086 33.28-2.69 4.5-5.33 8.75-7.94 12.75-14.61 22.42-47.7 21.44-61.06-1.74-3.202-5.556-6.422-11.374-9.602-17.262-8.029-14.869-26.86-20.061-41.347-11.363-.176.106-.352.211-.528.317-13.623 8.17-18.467 25.592-10.915 39.568 3.408 6.307 6.89 12.592 10.413 18.699 17.069 29.622 48.909 48.022 83.099 48.022z" fill="#a9cffc" data-original="#a9cffc" style=""/><g fill="#cbe1ff"><path d="m338.221 89.55c-14.028-7.848-31.756-3.122-39.979 10.69-1.21 2.033-2.473 4.096-3.792 6.19-2.69 4.5-5.33 8.75-7.94 12.75-10.156 15.585-29.235 19.854-44.413 13.224-10.207-4.459-21.983-3.242-30.743 3.638-.174.136-.347.273-.521.409-17.351 13.613-14.355 40.919 5.672 50.154 12.384 5.711 26.025 8.815 40.065 8.815 32.47 0 62.46-16.25 80.21-43.48 2.96-4.54 5.93-9.31 8.84-14.19 1.458-2.325 2.857-4.618 4.202-6.878 8.524-14.325 3.51-32.867-11.037-41.006-.188-.106-.376-.211-.564-.316z" fill="#cbe1ff" data-original="#cbe1ff" style=""/><circle cx="111.823" cy="314.877" r="30" fill="#cbe1ff" data-original="#cbe1ff" style=""/></g></g><circle cx="135.68" cy="32.33" fill="#a9cffc" r="30" data-original="#a9cffc" style=""/></g></g></svg>
